<?xml version="1.0" standalone="no"?>
<!DOCTYPE svg PUBLIC "-//W3C//DTD SVG 20010904//EN"
 "http://www.w3.org/TR/2001/REC-SVG-20010904/DTD/svg10.dtd">
<svg version="1.0" xmlns="http://www.w3.org/2000/svg"
 width="512.000000pt" height="512.000000pt" viewBox="0 0 512.000000 512.000000"
 preserveAspectRatio="xMidYMid meet">
<metadata>
Created by potrace 1.14, written by Peter Selinger 2001-2017
</metadata>
<g transform="translate(0.000000,512.000000) scale(0.100000,-0.100000)"
fill="#000000" stroke="none">
<path d="M2226 4818 c-2 -7 -7 -85 -11 -173 -3 -87 -8 -162 -11 -164 -3 -3
-168 -5 -367 -6 -199 0 -368 -4 -374 -8 -9 -6 -13 -39 -13 -105 0 -53 -4 -112
-9 -130 -8 -27 -7 -34 10 -42 15 -9 19 -22 19 -65 0 -48 -2 -55 -20 -55 -20 0
-26 26 -21 82 1 9 -3 20 -10 24 -9 5 -10 -6 -5 -47 6 -51 21 -507 21 -669 0
-218 -18 -636 -29 -642 -6 -4 -24 -8 -39 -8 -39 0 -46 26 -13 56 30 29 32 37
10 58 -19 19 -49 7 -59 -24 -16 -50 -42 4 -31 64 5 24 2 39 -9 50 -22 21 -28
20 -22 -4 3 -11 1 -20 -4 -20 -5 0 -9 -9 -9 -19 0 -11 -5 -23 -10 -26 -16 -10
-12 -23 7 -21 9 0 22 -9 28 -21 7 -13 19 -31 28 -41 21 -23 21 -32 2 -32 -8 0
-30 -13 -48 -30 -41 -36 -44 -36 -50 -7 -3 15 -5 12 -6 -11 -1 -26 6 -41 30
-63 36 -34 33 -54 -10 -64 -37 -8 -43 -26 -39 -115 l3 -65 65 -6 c36 -4 108
-12 160 -18 52 -6 121 -11 153 -11 43 0 62 -5 77 -20 11 -11 37 -28 57 -37 47
-22 52 -49 23 -124 -38 -97 -362 -664 -405 -709 -13 -14 -47 -72 -75 -130 -60
-124 -66 -134 -141 -265 -57 -98 -70 -137 -48 -150 5 -4 14 -18 19 -31 8 -21
16 -24 59 -24 87 0 98 -15 59 -78 -17 -28 -21 -48 -19 -87 14 -180 -8 -233
-71 -171 -13 14 -61 44 -106 67 -94 48 -142 89 -142 122 0 12 9 38 20 57 45
77 62 126 75 209 8 53 24 109 40 141 22 44 25 57 16 77 -6 13 -11 28 -11 32 0
12 48 31 79 31 35 0 72 36 136 133 32 49 36 62 27 81 -12 28 -5 42 31 55 51
20 25 96 -45 129 -96 46 -233 40 -301 -12 -50 -38 -55 -56 -28 -95 12 -16 21
-36 21 -45 0 -24 -42 -47 -76 -40 -16 3 -56 -2 -88 -10 -53 -14 -67 -24 -127
-88 -81 -86 -113 -145 -106 -191 4 -24 -3 -46 -26 -87 -33 -60 -37 -96 -22
-211 5 -45 4 -77 -5 -103 -19 -57 -7 -84 48 -108 26 -11 56 -28 67 -38 23 -20
104 -50 138 -50 37 -1 103 -36 125 -68 12 -16 39 -37 60 -45 56 -22 293 -49
371 -42 49 5 76 3 103 -9 46 -20 83 -20 173 -1 98 20 150 40 225 85 73 44 108
55 130 41 12 -8 12 -14 1 -35 -13 -23 -12 -42 6 -115 8 -31 15 -36 93 -68 94
-38 117 -54 136 -99 11 -26 21 -32 55 -38 52 -8 109 11 109 37 0 10 9 30 20
44 11 14 20 31 20 37 0 7 13 22 29 33 19 14 30 34 34 58 13 78 49 85 110 20
39 -41 48 -45 90 -45 42 0 49 -4 73 -38 16 -20 35 -43 43 -49 19 -16 167 -17
244 -2 51 10 60 9 97 -10 28 -14 63 -22 109 -24 58 -2 75 2 132 31 56 29 78
34 150 37 46 1 101 6 121 10 32 6 42 4 69 -19 25 -21 38 -26 58 -20 14 4 35 7
46 6 115 -7 144 -11 168 -21 42 -17 116 -13 212 9 105 25 120 32 166 81 25 27
45 39 64 39 27 0 72 36 93 76 6 11 10 43 9 71 -2 38 -8 56 -27 76 -14 15 -30
27 -36 27 -15 0 -36 25 -28 33 4 3 15 2 26 -4 35 -19 40 3 7 31 l-33 27 37 43
c20 24 37 47 37 52 0 11 56 38 80 38 19 0 21 -4 15 -30 -5 -23 -3 -32 11 -37
12 -4 21 0 28 11 6 10 23 34 38 53 26 34 27 36 13 71 -25 58 -8 83 67 96 67
12 56 70 -21 108 -39 19 -61 22 -143 20 -54 -1 -100 3 -103 8 -4 6 -1 26 6 45
11 29 10 40 -4 69 -23 50 -68 70 -148 68 -52 -1 -68 2 -73 13 -5 15 -33 29
-81 41 -20 5 -23 3 -19 -14 8 -27 131 -85 175 -81 30 2 60 -2 106 -16 9 -3 9
-12 -2 -39 -13 -32 -13 -39 1 -70 16 -32 16 -35 -3 -63 -11 -15 -24 -43 -28
-61 -5 -24 -15 -36 -41 -47 -43 -18 -48 -32 -29 -79 16 -37 16 -39 -7 -65 -14
-14 -29 -38 -36 -53 -13 -31 -76 -53 -129 -45 -23 4 -33 2 -33 -7 0 -8 -6 -19
-14 -25 -15 -12 -186 -21 -186 -9 0 4 -24 23 -53 42 -30 20 -61 44 -71 55 -17
18 -16 19 21 19 21 0 66 3 100 7 55 7 62 10 67 34 4 14 21 54 38 89 l32 62
-23 47 c-13 26 -65 119 -117 206 -52 88 -97 170 -100 184 -7 25 -6 25 42 20
112 -13 176 -26 199 -41 44 -29 50 -17 11 23 -46 47 -90 61 -193 61 -78 0 -79
0 -115 38 -39 41 -122 168 -288 443 -129 212 -132 224 -67 286 52 51 95 70
211 92 101 18 103 21 105 112 1 66 -14 81 -94 90 -36 3 -71 11 -77 17 -48 48
-75 748 -37 957 17 99 19 334 2 377 -13 32 -13 39 0 60 21 32 32 130 18 157
-16 29 -49 27 -61 -3 -5 -13 -13 -27 -19 -30 -11 -7 -44 77 -61 157 -6 32 -17
60 -23 62 -7 2 -158 6 -337 9 -381 7 -416 10 -436 41 -19 29 -52 161 -60 240
-4 35 -10 69 -15 76 -12 20 -227 26 -233 7z m132 -11 l82 -2 1 -142 c1 -79 2
-157 3 -174 1 -26 -2 -30 -21 -26 -12 2 -24 -1 -27 -7 -2 -6 -5 -2 -6 9 -1 20
-1 20 -15 1 -8 -11 -15 -15 -15 -10 0 6 -22 9 -54 6 l-54 -4 -6 54 c-3 29 -7
110 -10 181 l-5 127 23 -6 c13 -3 60 -6 104 -7z m-536 -439 c4 -99 25 -161 85
-250 79 -116 103 -257 68 -398 -22 -91 -16 -145 22 -201 17 -24 34 -55 38 -69
7 -25 7 -25 -25 5 l-33 30 27 -40 c35 -53 33 -62 -6 -27 -18 16 -58 50 -88 76
-30 26 -67 57 -82 70 -15 12 -36 22 -47 21 -12 -1 -26 4 -32 11 -19 23 -1 131
35 219 l17 40 -26 -30 c-40 -48 -56 -110 -61 -240 -3 -66 -7 -135 -10 -154
l-6 -34 -18 28 c-10 16 -28 59 -41 97 -18 58 -21 82 -15 151 19 247 20 225
-14 332 -40 129 -46 193 -27 275 9 36 19 74 23 84 5 14 4 17 -5 12 -11 -7 -41
47 -41 74 0 6 47 10 129 10 l129 0 4 -92z m1207 -9 c18 -24 38 -44 42 -44 5 0
16 -13 24 -28 8 -15 10 -25 5 -22 -10 6 -10 6 21 -150 28 -144 31 -171 20
-210 -6 -21 -6 -35 0 -35 5 0 9 -19 9 -42 0 -27 -3 -38 -9 -30 -4 8 -11 -46
-15 -125 -4 -76 -9 -151 -11 -168 -3 -16 -6 -63 -7 -102 -1 -40 -5 -73 -9 -73
-34 0 -139 437 -139 577 0 24 -7 76 -15 116 -27 136 -37 244 -24 290 13 50 46
100 63 94 6 -2 26 -23 45 -48z m-646 -138 c9 -12 9 -13 0 -7 -7 4 -13 3 -13
-1 0 -5 6 -15 13 -22 10 -11 10 -13 0 -7 -10 5 -13 -6 -14 -41 -1 -27 -4 -37
-6 -23 -3 14 -9 29 -14 35 -5 5 -9 20 -8 35 l1 25 8 -25 c6 -19 9 -9 11 40 1
36 4 52 6 35 3 -16 10 -36 16 -44z m1082 -23 c-4 -24 -12 -54 -17 -67 -8 -23
-9 -23 -23 -5 -19 25 -19 64 0 64 8 0 17 11 21 25 11 43 26 29 19 -17z m-1118
-70 c-3 -8 -6 -5 -6 6 -1 11 2 17 5 13 3 -3 4 -12 1 -19z m0 -80 c-2 -13 -4
-3 -4 22 0 25 2 35 4 23 2 -13 2 -33 0 -45z m940 -40 c-2 -18 -4 -4 -4 32 0
36 2 50 4 33 2 -18 2 -48 0 -65z m134 40 c3 -71 -25 -316 -38 -327 -8 -8 4
309 12 332 10 24 25 21 26 -5z m-1974 -60 c-3 -7 -5 -2 -5 12 0 14 2 19 5 13
2 -7 2 -19 0 -25z m0 -140 c-2 -18 -4 -6 -4 27 0 33 2 48 4 33 2 -15 2 -42 0
-60z m950 30 c-3 -7 -5 -2 -5 12 0 14 2 19 5 13 2 -7 2 -19 0 -25z m-226 -104
c50 -42 73 -52 149 -66 30 -5 62 -12 70 -15 8 -4 20 -7 27 -9 25 -5 204 -189
251 -258 68 -98 118 -201 131 -268 12 -68 28 -107 70 -172 30 -49 43 -116 21
-116 -5 0 -10 4 -10 9 0 12 -67 34 -79 27 -5 -4 -22 4 -38 17 -67 53 -67 54
-59 32 6 -15 0 -13 -24 10 -40 38 -75 98 -90 153 -6 23 -15 42 -20 42 -13 0
-13 -4 5 -47 17 -40 19 -51 6 -37 -5 5 -14 26 -21 48 -10 30 -10 40 0 46 8 5
10 18 5 39 -4 17 -10 29 -15 26 -5 -3 -11 8 -15 25 -4 16 -12 30 -19 30 -6 0
-34 23 -61 51 -136 138 -263 237 -150 115 30 -32 36 -45 31 -67 -4 -22 -2 -27
9 -22 9 3 16 -1 16 -8 1 -8 2 -18 3 -24 0 -5 17 -35 37 -65 50 -77 61 -99 70
-140 l7 -35 -16 24 c-28 41 -94 104 -159 153 -118 90 -153 165 -153 332 -1 71
-6 117 -19 154 -10 28 -15 52 -10 52 4 0 27 -16 50 -36z m-347 -438 c17 -36
22 -106 8 -106 -22 0 -51 44 -57 85 -13 84 14 95 49 21z m-563 -363 c-12 -20
-14 -14 -5 12 4 9 9 14 11 11 3 -2 0 -13 -6 -23z m99 -69 c0 -15 -26 -43 -41
-44 -3 0 -4 14 -1 30 3 21 10 30 23 30 11 0 19 -7 19 -16z m1557 -46 c-3 -7
-5 -2 -5 12 0 14 2 19 5 13 2 -7 2 -19 0 -25z m18 -105 c-3 -13 -10 -23 -15
-23 -13 0 -13 17 0 25 6 3 10 13 10 21 0 11 -4 12 -19 4 -29 -15 -33 -12 -19
12 26 45 33 47 40 14 4 -17 5 -41 3 -53z m-1612 -15 c-3 -24 -7 -44 -8 -46 -1
-1 -28 7 -59 19 -32 11 -55 24 -51 27 3 3 27 7 52 9 29 1 50 8 55 18 14 24 16
18 11 -27z m103 31 c3 -6 1 -16 -5 -22 -8 -8 -17 -5 -33 11 l-22 22 26 0 c15
0 30 -5 34 -11z m1484 -64 c-7 -8 -17 -15 -22 -15 -6 0 -5 7 2 15 7 8 17 15
22 15 6 0 5 -7 -2 -15z m-1549 -35 c24 -13 25 -37 2 -44 -38 -11 -173 -16
-173 -6 0 6 26 10 59 10 62 0 91 16 69 38 -16 16 15 17 43 2z m363 -35 c-7
-16 -44 -21 -44 -6 0 8 16 16 42 20 4 0 5 -6 2 -14z m1361 -15 c-3 -5 -10 -10
-16 -10 -5 0 -9 5 -9 10 0 6 7 10 16 10 8 0 12 -4 9 -10z m-435 -10 c0 -5 -4
-10 -10 -10 -5 0 -10 5 -10 10 0 6 5 10 10 10 6 0 10 -4 10 -10z m-940 -90
c27 -4 36 -11 38 -28 3 -22 1 -23 -45 -20 -46 3 -48 4 -51 37 -3 25 0 31 9 25
8 -4 29 -10 49 -14z m-480 6 c0 -9 -30 -14 -35 -6 -4 6 3 10 14 10 12 0 21 -2
21 -4z m1933 -3 c-13 -2 -33 -2 -45 0 -13 2 -3 4 22 4 25 0 35 -2 23 -4z
m-1180 -20 c-23 -2 -64 -2 -90 0 -26 2 -7 3 42 3 50 0 71 -1 48 -3z m74 1 c-3
-3 -12 -4 -19 -1 -8 3 -5 6 6 6 11 1 17 -2 13 -5z m988 -44 c3 -5 1 -10 -4
-10 -6 0 -11 5 -11 10 0 6 2 10 4 10 3 0 8 -4 11 -10z m-1307 -35 c3 -24 1
-28 -9 -17 -7 6 -25 12 -40 12 -15 0 -31 5 -34 10 -12 19 7 31 43 28 33 -3 37
-6 40 -33z m762 -30 c0 -8 -6 -15 -14 -15 -20 0 -29 17 -14 23 22 9 28 7 28
-8z m20 -60 c11 -13 9 -20 -9 -39 -11 -12 -18 -26 -14 -30 9 -9 -24 -36 -44
-36 -7 0 -13 7 -13 15 0 8 -6 15 -14 15 -16 0 -66 38 -66 50 0 5 7 7 15 4 11
-5 13 -2 9 10 -8 20 -6 20 41 -4 40 -20 65 -14 65 16 0 18 14 18 30 -1z m344
-17 c30 -40 308 -494 336 -547 17 -34 17 -40 4 -45 -8 -3 -13 -2 -9 3 5 10
-40 51 -56 51 -14 0 -10 -27 6 -40 23 -19 18 -27 -20 -34 -42 -8 -90 20 -92
53 -1 12 -11 34 -22 50 -12 16 -21 34 -21 40 0 15 -60 2 -82 -17 -25 -21 -22
-45 12 -100 35 -58 37 -72 11 -103 -17 -21 -22 -22 -41 -11 -28 17 -33 11 -15
-15 8 -11 28 -23 45 -26 35 -7 40 -31 10 -47 -20 -11 -200 -7 -231 5 -25 9
-41 43 -30 63 7 14 5 23 -10 35 -18 16 -19 31 -19 237 0 192 2 226 19 272 11
29 25 72 30 95 14 53 39 83 82 98 54 20 66 17 93 -17z m-583 -154 c20 -3 42
-10 49 -14 24 -15 15 -599 -10 -624 -7 -7 -80 -11 -223 -10 -291 1 -319 11
-199 69 34 17 74 42 89 56 15 15 49 38 74 53 25 14 51 37 57 51 l12 25 -68 -6
c-57 -4 -72 -2 -101 16 -24 15 -32 26 -28 41 11 40 203 373 236 408 l34 36 21
-48 c17 -42 24 -48 57 -53z m-488 -159 c-3 -9 -8 -14 -10 -11 -3 3 -2 9 2 15
9 16 15 13 8 -4z m1314 -439 c4 -7 15 -16 23 -19 9 -3 5 -6 -10 -6 -15 -1 -31
4 -38 11 -9 9 -12 8 -12 -5 0 -9 -4 -17 -10 -17 -5 0 -10 11 -10 25 0 20 5 25
25 25 13 0 28 -6 32 -14z m-1100 -201 c240 0 264 -2 280 -18 17 -17 17 -18
-10 -8 -47 18 -74 13 -101 -20 -14 -17 -26 -27 -26 -24 0 4 -6 2 -14 -4 -7 -6
-21 -8 -30 -5 -11 4 -22 -1 -31 -14 -8 -11 -30 -23 -50 -26 -35 -7 -45 -19
-25 -31 7 -4 7 -13 0 -26 -16 -28 4 -59 38 -59 39 -1 96 -32 100 -54 9 -46
-77 -141 -143 -159 -68 -18 -232 -71 -240 -77 -18 -13 -74 -20 -80 -10 -9 14
-49 12 -63 -2 -9 -9 -12 -6 -12 14 0 15 5 28 10 30 18 6 21 57 6 86 -8 15 -19
67 -25 116 -6 49 -16 94 -22 102 -8 10 -3 26 20 67 17 30 38 60 47 68 8 7 22
26 30 42 14 26 19 28 47 21 18 -5 150 -9 294 -9z m874 -2 c16 -10 29 -21 29
-25 0 -4 5 -8 10 -8 6 0 10 7 10 15 0 9 9 15 24 15 13 0 43 3 68 6 32 4 48 2
59 -8 8 -8 22 -17 32 -21 9 -3 16 -12 15 -19 -5 -22 48 -21 98 1 56 25 109 27
152 5 40 -19 40 -35 1 -68 -43 -37 -30 -49 44 -41 53 6 59 5 54 -9 -5 -11 -1
-16 13 -16 27 0 78 -99 58 -111 -7 -5 -20 -9 -29 -9 -15 0 -33 -33 -30 -53 1
-5 -9 -7 -21 -6 -13 2 -33 -3 -46 -9 -12 -7 -27 -10 -32 -7 -6 3 -10 -3 -10
-15 0 -23 -39 -44 -54 -29 -6 5 -17 2 -27 -7 -10 -9 -34 -16 -54 -16 -33 0
-36 -2 -31 -23 5 -21 0 -26 -49 -44 -31 -12 -73 -21 -94 -21 -21 0 -52 -5 -69
-11 -35 -12 -72 3 -137 56 -108 90 -145 135 -145 180 0 35 -48 121 -75 133
-37 17 -143 -12 -182 -50 -38 -36 -56 -31 -40 12 9 24 8 37 -4 63 -42 85 -42
83 -28 106 8 11 23 21 34 21 11 1 62 2 113 4 50 2 92 1 92 -3 0 -12 55 -9 70
4 23 19 40 23 98 24 34 1 65 -5 83 -16z m655 -474 c3 -5 -4 -9 -14 -9 -11 0
-22 6 -25 14 -4 10 0 12 14 9 11 -3 22 -9 25 -14z m509 -117 c12 -10 21 -31
22 -52 l2 -35 -30 35 c-27 32 -39 70 -21 70 4 -1 16 -8 27 -18z"/>
<path d="M2357 4703 c-4 -3 -7 -13 -7 -22 1 -13 3 -13 11 2 11 19 8 33 -4 20z"/>
<path d="M2272 4648 c-15 -15 -15 -38 0 -38 6 0 8 3 5 7 -4 3 -2 12 5 20 14
17 6 27 -10 11z"/>
<path d="M2588 3250 c17 -25 44 -56 62 -68 l32 -24 -16 24 c-9 12 -37 43 -62
68 l-46 45 30 -45z"/>
<path d="M3099 1193 c-8 -10 -21 -30 -29 -45 -7 -16 -19 -28 -27 -28 -15 0
-18 -26 -3 -35 6 -4 26 5 45 19 40 31 55 33 48 7 -3 -10 0 -22 6 -25 15 -10
14 -49 -1 -64 -10 -10 -10 -15 1 -22 17 -10 67 12 73 32 2 6 10 8 16 4 7 -4
10 -16 7 -25 -5 -16 20 -50 29 -40 20 25 22 45 7 76 -13 26 -22 33 -46 33 -22
0 -26 3 -17 12 7 7 44 13 86 13 55 1 82 7 103 21 l28 19 -37 3 c-20 2 -45 -1
-55 -6 -10 -5 -48 -7 -85 -4 -58 4 -68 7 -68 23 0 10 -13 25 -30 34 -36 19
-34 19 -51 -2z"/>
<path d="M1196 2859 c-8 -42 0 -50 9 -9 4 17 5 34 2 36 -2 3 -7 -10 -11 -27z"/>
<path d="M4477 838 c-35 -25 -38 -52 -4 -37 26 12 51 45 39 53 -4 2 -20 -5
-35 -16z"/>
</g>
</svg>
